Coordinates
version=1
nRows=14
nColumns=40
inDegrees=yes

Units are S.I. units (second, meters, Newtons, ...)
Angles are in degrees.

endheader
time	pelvis_tilt	pelvis_list	pelvis_rotation	pelvis_tx	pelvis_ty	pelvis_tz	hip_flexion_r	hip_adduction_r	hip_rotation_r	knee_angle_r	knee_angle_r_beta	ankle_angle_r	subtalar_angle_r	mtp_angle_r	hip_flexion_l	hip_adduction_l	hip_rotation_l	knee_angle_l	knee_angle_l_beta	ankle_angle_l	subtalar_angle_l	mtp_angle_l	lumbar_extension	lumbar_bending	lumbar_rotation	arm_flex_r	arm_add_r	arm_rot_r	elbow_flex_r	pro_sup_r	wrist_flex_r	wrist_dev_r	arm_flex_l	arm_add_l	arm_rot_l	elbow_flex_l	pro_sup_l	wrist_flex_l	wrist_dev_l
      9.55500000	     -7.27162813	     -4.08447639	     -3.16836718	      0.95676133	      0.92097058	      0.44484992	     35.52236868	     -2.52657243	    -12.04795805	     21.36525491	     21.36525491	      3.17513782	      2.36081560	      6.68302203	      4.71563381	     -5.25251625	    -13.24570869	     14.20466289	     14.20466289	     17.12516456	     -4.82295833	     -6.32248568	    -12.95206626	      4.40623795	      1.72131958	    -10.35936789	    -14.44658427	    -11.09877303	     26.28952801	     47.22285878	      0.00000000	      0.00000000	     25.37086657	    -19.24313610	     -5.36110737	     94.79038255	     47.58298450	      0.00000000	      0.00000000
      9.56635714	     -7.32507053	     -3.59371490	     -2.85780394	      0.95856814	      0.91824080	      0.44591227	     35.00419524	     -2.77262298	    -12.24603812	     19.43539232	     19.43539232	      3.32272294	      2.77806483	      7.16622072	      4.13500064	     -4.75958563	    -12.99172103	     14.22980178	     14.22980178	     17.80143641	     -4.64477007	     -6.64096475	    -12.41579585	      3.93787327	      1.39080552	    -11.82132530	    -14.43974169	    -11.13619670	     25.80245721	     47.22992253	      0.00000000	      0.00000000	     25.98358001	    -19.47662324	     -5.54963830	     95.53596981	     47.61426520	      0.00000000	      0.00000000
      9.57771429	     -7.11926433	     -3.68933164	     -2.73241127	      0.96082202	      0.91659881	      0.44750168	     33.58250184	     -2.40683424	    -13.49522507	     16.93307691	     16.93307691	      3.41831866	      4.62769967	      9.06390992	      2.95658701	     -4.92978306	    -13.27331924	     13.82798225	     13.82798225	     18.53261939	     -3.83049974	     -6.44004160	    -12.47646974	      4.03093186	      1.94392792	    -13.51392519	    -14.30340288	    -11.22794097	     26.28322935	     47.16963347	      0.00000000	      0.00000000	     26.15922678	    -19.23457071	     -4.94567569	     98.97644605	     47.68640099	      0.00000000	      0.00000000
      9.58907143	     -7.11200473	     -3.60874552	     -2.49602081	      0.96291604	      0.91434457	      0.44913991	     32.80941791	     -2.22448826	    -13.96535450	     15.54752645	     15.54752645	      3.21911396	      5.02197672	      9.54994516	      2.25608001	     -4.93649738	    -13.10160774	     13.83905586	     13.83905586	     19.19379296	     -3.68795121	     -6.43800937	    -12.13154567	      3.97157728	      2.04725618	    -14.87305691	    -14.15288954	    -11.20629414	     26.16138835	     47.15073921	      0.00000000	      0.00000000	     26.53173901	    -19.12459216	     -4.88703577	    100.39744751	     47.72503251	      0.00000000	      0.00000000
      9.60042857	     -7.04821181	     -3.54082797	     -2.23606697	      0.96510622	      0.91218393	      0.45087672	     32.18917739	     -2.12385692	    -14.40607563	     14.94142657	     14.94142657	      2.77588711	      5.21376076	      8.94745299	      1.60631374	     -5.03596042	    -13.09214056	     14.14387676	     14.14387676	     20.41875322	     -3.01432469	     -5.34091712	    -11.93480793	      3.92421625	      2.02699435	    -16.65614871	    -14.08052856	    -10.99451272	     27.80196627	     46.99979801	      0.00000000	      0.00000000	     26.33541973	    -19.35237973	     -4.54128395	    102.82876643	     47.81480053	      0.00000000	      0.00000000
      9.61178571	     -7.02494837	     -3.56335393	     -1.99434579	      0.96728413	      0.91011398	      0.45286008	     31.68685340	     -1.90793203	    -14.57995095	     14.73988930	     14.73988930	      1.88703409	      4.73657237	      6.89779618	      1.05177974	     -5.24280645	    -12.91793248	     14.52679226	     14.52679226	     21.47304782	     -2.79122653	     -4.31063277	    -11.66164249	      3.95095638	      2.14607127	    -18.08234374	    -14.01076095	    -10.43374485	     28.68957450	     46.86248219	      0.00000000	      0.00000000	     26.24261832	    -19.37433298	     -4.37137097	    104.41902653	     47.90231356	      0.00000000	      0.00000000
      9.62314286	     -6.98269271	     -3.67154411	     -1.73798746	      0.96930612	      0.90837233	      0.45489216	     31.35186389	     -1.71321208	    -14.70209366	     15.16502263	     15.16502263	      1.48662174	      4.30102628	      6.36360607	      0.60149076	     -5.56180964	    -12.49322671	     15.06827005	     15.06827005	     22.01034275	     -3.04998747	     -4.30652533	    -11.46037509	      4.12754311	      2.40346446	    -18.96646669	    -13.80036834	    -10.28197054	     28.49201423	     46.84457758	      0.00000000	      0.00000000	     26.22031693	    -18.94931976	     -4.29715397	    105.48065078	     47.92957582	      0.00000000	      0.00000000
      9.63450000	     -6.96394854	     -3.69874096	     -1.45893214	      0.97135578	      0.90676493	      0.45706036	     30.96961183	     -1.51858635	    -14.40563383	     15.46545782	     15.46545782	     -0.52154396	      2.87613866	      0.95498865	      0.37154188	     -5.86343303	    -12.10127183	     16.03102886	     16.03102886	     23.07772645	     -3.09238504	     -2.91521365	    -11.27781329	      4.17441657	      2.25548509	    -19.89723686	    -13.73308511	     -9.16866752	     29.57038892	     46.65119125	      0.00000000	      0.00000000	     25.52972870	    -18.93960419	     -4.48370582	    107.35896496	     48.07858228	      0.00000000	      0.00000000
      9.64585714	     -6.73148543	     -3.91156348	     -1.18269816	      0.97336328	      0.90603743	      0.45934661	     30.57969611	     -1.29608465	    -14.44169337	     16.49006482	     16.49006482	     -0.52581833	      2.25974030	      0.58657158	     -0.10888508	     -6.36090620	    -11.63408588	     16.85778034	     16.85778034	     23.27206654	     -3.50352125	     -3.02040892	    -11.33846432	      4.41701403	      2.42660428	    -20.32498173	    -13.57708969	     -9.08731583	     29.39895694	     46.64602364	      0.00000000	      0.00000000	     25.07339693	    -18.71991272	     -4.36915667	    107.76679730	     48.08208009	      0.00000000	      0.00000000
      9.65721429	     -6.80669787	     -4.00399057	     -0.95447553	      0.97485669	      0.90500141	      0.46185121	     30.69030010	     -1.05666187	    -13.66391123	     17.68569775	     17.68569775	     -1.30341267	      0.09996350	     -1.96144309	      0.24528916	     -6.79020962	    -10.83846862	     18.56497393	     18.56497393	     23.47823347	     -4.67811693	     -2.87572112	    -11.18317229	      4.47390039	      2.24613626	    -20.36356157	    -13.50182840	     -8.47322596	     29.61543250	     46.56486083	      0.00000000	      0.00000000	     24.06184846	    -18.77818633	     -4.52608804	    109.81051224	     48.18691620	      0.00000000	      0.00000000
      9.66857143	     -6.69353990	     -4.19388618	     -0.68249310	      0.97638224	      0.90478205	      0.46432076	     30.59498998	     -0.88616569	    -13.54971899	     19.04973355	     19.04973355	     -1.05434895	     -0.74847411	     -2.58192657	      0.52275569	     -7.38843685	    -10.24401159	     20.47177826	     20.47177826	     23.33354845	     -5.57698907	     -3.17136172	    -11.25086346	      4.69927296	      2.48874553	    -20.33590450	    -13.28829747	     -8.28016961	     29.52098104	     46.54983991	      0.00000000	      0.00000000	     23.39271969	    -18.37989582	     -4.46974112	    110.29562209	     48.20139637	      0.00000000	      0.00000000
      9.67992857	     -6.60672763	     -4.36850798	     -0.41082897	      0.97768191	      0.90498019	      0.46689868	     30.44722003	     -0.66989994	    -13.28104616	     20.22458104	     20.22458104	     -0.71197986	     -1.79545355	     -3.08416402	      1.10909134	     -7.99597481	     -9.52240594	     22.81899767	     22.81899767	     22.84338975	     -6.78863961	     -3.63058706	    -11.34138784	      4.86197637	      2.57369337	    -19.97394676	    -13.04218192	     -8.04743972	     29.49371724	     46.53110374	      0.00000000	      0.00000000	     22.34159174	    -18.09498086	     -4.43765648	    110.83831801	     48.21945856	      0.00000000	      0.00000000
      9.69128571	     -6.50002825	     -4.58611110	     -0.11188903	      0.97882842	      0.90558583	      0.46950229	     30.17244506	     -0.42633980	    -13.23869195	     21.20772983	     21.20772983	     -0.19388311	     -2.62455844	     -3.41890783	      1.97857958	     -8.68567605	     -8.76732553	     25.63649522	     25.63649522	     21.99029391	     -8.21515467	     -4.27284322	    -11.46416288	      5.06371281	      2.59098849	    -19.34898640	    -12.86558367	     -7.80597854	     29.47704342	     46.51439771	      0.00000000	      0.00000000	     21.16226599	    -17.84225760	     -4.45758742	    111.21294769	     48.23597394	      0.00000000	      0.00000000
      9.70264286	     -6.31435831	     -4.73986114	      0.24006367	      0.97982933	      0.90679092	      0.47195035	     29.69426256	     -0.24599815	    -13.11203939	     21.95433461	     21.95433461	      0.58629328	     -3.16776411	     -3.23740377	      2.84453606	     -9.21376071	     -7.76040940	     28.37020699	     28.37020699	     19.88026407	    -10.51985030	     -6.61525436	    -11.75937933	      5.22724957	      1.85781717	    -17.75215544	    -12.93448895	     -6.65510017	     28.81441420	     46.45221768	      0.00000000	      0.00000000	     19.05988298	    -17.82632908	     -5.46592089	    112.17006180	     48.37163467	      0.00000000	      0.00000000
